<mxfile host="app.diagrams.net" agent="Mozilla/5.0 (Windows NT 10.0; Win64; x64) AppleWebKit/537.36 (KHTML, like Gecko) Chrome/131.0.0.0 Safari/537.36" version="26.2.14">
  <diagram name="Página-1" id="X4DvRH34ZXZpRo4wGiXm">
    <mxGraphModel dx="1148" dy="536" grid="1" gridSize="10" guides="1" tooltips="1" connect="1" arrows="1" fold="1" page="1" pageScale="1" pageWidth="827" pageHeight="1169" math="0" shadow="0">
      <root>
        <mxCell id="0" />
        <mxCell id="1" parent="0" />
        <mxCell id="tgVbZdLMjY5gzYFNhMRs-1" value="modelo conceitual PK e FK" style="rounded=1;whiteSpace=wrap;html=1;fillColor=#e6d0de;gradientColor=#d5739d;strokeColor=#996185;" parent="1" vertex="1">
          <mxGeometry x="280" y="50" width="222" height="30" as="geometry" />
        </mxCell>
        <mxCell id="tgVbZdLMjY5gzYFNhMRs-3" value="aluno" style="swimlane;childLayout=stackLayout;horizontal=1;startSize=50;horizontalStack=0;rounded=1;fontSize=14;fontStyle=0;strokeWidth=2;resizeParent=0;resizeLast=1;shadow=0;dashed=0;align=center;arcSize=4;whiteSpace=wrap;html=1;" parent="1" vertex="1">
          <mxGeometry x="186" y="160" width="160" height="140" as="geometry" />
        </mxCell>
        <mxCell id="tgVbZdLMjY5gzYFNhMRs-4" value="codigo PK&lt;div&gt;nome&lt;/div&gt;&lt;div&gt;cidade&lt;/div&gt;&lt;div&gt;telefone&lt;/div&gt;&lt;div&gt;codcurso FK&lt;/div&gt;" style="align=left;strokeColor=none;fillColor=none;spacingLeft=4;spacingRight=4;fontSize=12;verticalAlign=top;resizable=0;rotatable=0;part=1;html=1;whiteSpace=wrap;" parent="tgVbZdLMjY5gzYFNhMRs-3" vertex="1">
          <mxGeometry y="50" width="160" height="90" as="geometry" />
        </mxCell>
        <mxCell id="tgVbZdLMjY5gzYFNhMRs-5" value="curso" style="swimlane;childLayout=stackLayout;horizontal=1;startSize=50;horizontalStack=0;rounded=1;fontSize=14;fontStyle=0;strokeWidth=2;resizeParent=0;resizeLast=1;shadow=0;dashed=0;align=center;arcSize=4;whiteSpace=wrap;html=1;" parent="1" vertex="1">
          <mxGeometry x="467" y="160" width="149" height="140" as="geometry" />
        </mxCell>
        <mxCell id="tgVbZdLMjY5gzYFNhMRs-6" value="codigo PK&lt;div&gt;nome&lt;/div&gt;&lt;div&gt;sala&lt;/div&gt;&lt;div&gt;coordenador&lt;/div&gt;" style="align=left;strokeColor=none;fillColor=none;spacingLeft=4;spacingRight=4;fontSize=12;verticalAlign=top;resizable=0;rotatable=0;part=1;html=1;whiteSpace=wrap;" parent="tgVbZdLMjY5gzYFNhMRs-5" vertex="1">
          <mxGeometry y="50" width="149" height="90" as="geometry" />
        </mxCell>
        <mxCell id="tgVbZdLMjY5gzYFNhMRs-7" value="" style="edgeStyle=entityRelationEdgeStyle;fontSize=12;html=1;endArrow=ERmany;rounded=0;exitX=0;exitY=0.25;exitDx=0;exitDy=0;entryX=0.997;entryY=0.693;entryDx=0;entryDy=0;entryPerimeter=0;" parent="1" source="tgVbZdLMjY5gzYFNhMRs-5" target="tgVbZdLMjY5gzYFNhMRs-4" edge="1">
          <mxGeometry width="100" height="100" relative="1" as="geometry">
            <mxPoint x="546" y="290" as="sourcePoint" />
            <mxPoint x="646" y="190" as="targetPoint" />
          </mxGeometry>
        </mxCell>
        <mxCell id="tgVbZdLMjY5gzYFNhMRs-8" value="a chave FK&lt;div&gt;sempre vai pro&lt;/div&gt;&lt;div&gt;lado da que é muitos(N)&lt;/div&gt;" style="shape=note;size=20;whiteSpace=wrap;html=1;fillColor=#ffcccc;strokeColor=#36393d;" parent="1" vertex="1">
          <mxGeometry x="80" y="20" width="100" height="100" as="geometry" />
        </mxCell>
        <mxCell id="tgVbZdLMjY5gzYFNhMRs-9" value="autor" style="swimlane;childLayout=stackLayout;horizontal=1;startSize=50;horizontalStack=0;rounded=1;fontSize=14;fontStyle=0;strokeWidth=2;resizeParent=0;resizeLast=1;shadow=0;dashed=0;align=center;arcSize=4;whiteSpace=wrap;html=1;" parent="1" vertex="1">
          <mxGeometry x="60" y="362.5" width="160" height="160" as="geometry" />
        </mxCell>
        <mxCell id="tgVbZdLMjY5gzYFNhMRs-10" value="cpf PK&lt;div&gt;nome&lt;/div&gt;&lt;div&gt;endereco&lt;/div&gt;&lt;div&gt;telefone&lt;/div&gt;&lt;div&gt;&lt;br&gt;&lt;/div&gt;&lt;div&gt;&lt;br&gt;&lt;/div&gt;" style="align=left;strokeColor=none;fillColor=none;spacingLeft=4;spacingRight=4;fontSize=12;verticalAlign=top;resizable=0;rotatable=0;part=1;html=1;whiteSpace=wrap;" parent="tgVbZdLMjY5gzYFNhMRs-9" vertex="1">
          <mxGeometry y="50" width="160" height="110" as="geometry" />
        </mxCell>
        <mxCell id="tgVbZdLMjY5gzYFNhMRs-11" value="livro" style="swimlane;childLayout=stackLayout;horizontal=1;startSize=50;horizontalStack=0;rounded=1;fontSize=14;fontStyle=0;strokeWidth=2;resizeParent=0;resizeLast=1;shadow=0;dashed=0;align=center;arcSize=4;whiteSpace=wrap;html=1;" parent="1" vertex="1">
          <mxGeometry x="317" y="360" width="166" height="180" as="geometry" />
        </mxCell>
        <mxCell id="tgVbZdLMjY5gzYFNhMRs-12" value="codigo de rastreio PK&lt;div&gt;caracteristica&lt;/div&gt;&lt;div&gt;&lt;span style=&quot;background-color: transparent; color: light-dark(rgb(0, 0, 0), rgb(255, 255, 255));&quot;&gt;nome&lt;/span&gt;&lt;/div&gt;&lt;div&gt;preco&lt;/div&gt;&lt;div&gt;entrega&lt;/div&gt;&lt;div&gt;cpf FK&lt;/div&gt;&lt;div&gt;codcategoria FK&lt;/div&gt;&lt;div&gt;codeditora FK&lt;/div&gt;" style="align=left;strokeColor=none;fillColor=none;spacingLeft=4;spacingRight=4;fontSize=12;verticalAlign=top;resizable=0;rotatable=0;part=1;html=1;whiteSpace=wrap;" parent="tgVbZdLMjY5gzYFNhMRs-11" vertex="1">
          <mxGeometry y="50" width="166" height="130" as="geometry" />
        </mxCell>
        <mxCell id="tgVbZdLMjY5gzYFNhMRs-13" value="editora" style="swimlane;childLayout=stackLayout;horizontal=1;startSize=50;horizontalStack=0;rounded=1;fontSize=14;fontStyle=0;strokeWidth=2;resizeParent=0;resizeLast=1;shadow=0;dashed=0;align=center;arcSize=4;whiteSpace=wrap;html=1;" parent="1" vertex="1">
          <mxGeometry x="580" y="360" width="160" height="170" as="geometry" />
        </mxCell>
        <mxCell id="tgVbZdLMjY5gzYFNhMRs-14" value="cnpj PK&lt;div&gt;estado&lt;/div&gt;&lt;div&gt;telefone&lt;/div&gt;&lt;div&gt;nome&lt;/div&gt;&lt;div&gt;endereco&lt;/div&gt;&lt;div&gt;filial&lt;/div&gt;" style="align=left;strokeColor=none;fillColor=none;spacingLeft=4;spacingRight=4;fontSize=12;verticalAlign=top;resizable=0;rotatable=0;part=1;html=1;whiteSpace=wrap;" parent="tgVbZdLMjY5gzYFNhMRs-13" vertex="1">
          <mxGeometry y="50" width="160" height="120" as="geometry" />
        </mxCell>
        <mxCell id="tgVbZdLMjY5gzYFNhMRs-15" value="" style="edgeStyle=entityRelationEdgeStyle;fontSize=12;html=1;endArrow=ERmany;rounded=0;" parent="1" edge="1">
          <mxGeometry width="100" height="100" relative="1" as="geometry">
            <mxPoint x="220" y="487.5" as="sourcePoint" />
            <mxPoint x="320" y="387.5" as="targetPoint" />
          </mxGeometry>
        </mxCell>
        <mxCell id="tgVbZdLMjY5gzYFNhMRs-16" value="categoria" style="swimlane;childLayout=stackLayout;horizontal=1;startSize=50;horizontalStack=0;rounded=1;fontSize=14;fontStyle=0;strokeWidth=2;resizeParent=0;resizeLast=1;shadow=0;dashed=0;align=center;arcSize=4;whiteSpace=wrap;html=1;" parent="1" vertex="1">
          <mxGeometry x="570" y="572.5" width="160" height="170" as="geometry" />
        </mxCell>
        <mxCell id="tgVbZdLMjY5gzYFNhMRs-17" value="suspense&lt;div&gt;fantasia&lt;/div&gt;&lt;div&gt;romance&lt;/div&gt;&lt;div&gt;misterio&lt;/div&gt;&lt;div&gt;autoajuda&lt;/div&gt;&lt;div&gt;filosofia&lt;/div&gt;&lt;div&gt;caracteristica&lt;/div&gt;&lt;div&gt;&lt;br&gt;&lt;/div&gt;" style="align=left;strokeColor=none;fillColor=none;spacingLeft=4;spacingRight=4;fontSize=12;verticalAlign=top;resizable=0;rotatable=0;part=1;html=1;whiteSpace=wrap;" parent="tgVbZdLMjY5gzYFNhMRs-16" vertex="1">
          <mxGeometry y="50" width="160" height="120" as="geometry" />
        </mxCell>
        <mxCell id="tgVbZdLMjY5gzYFNhMRs-18" value="" style="edgeStyle=entityRelationEdgeStyle;fontSize=12;html=1;endArrow=ERmany;startArrow=ERmany;rounded=0;" parent="1" edge="1">
          <mxGeometry width="100" height="100" relative="1" as="geometry">
            <mxPoint x="480" y="482.5" as="sourcePoint" />
            <mxPoint x="580" y="382.5" as="targetPoint" />
          </mxGeometry>
        </mxCell>
        <mxCell id="tgVbZdLMjY5gzYFNhMRs-19" value="" style="edgeStyle=entityRelationEdgeStyle;fontSize=12;html=1;endArrow=ERmany;rounded=0;entryX=1.008;entryY=0.83;entryDx=0;entryDy=0;entryPerimeter=0;exitX=-0.003;exitY=0.157;exitDx=0;exitDy=0;exitPerimeter=0;" parent="1" source="tgVbZdLMjY5gzYFNhMRs-17" target="tgVbZdLMjY5gzYFNhMRs-12" edge="1">
          <mxGeometry width="100" height="100" relative="1" as="geometry">
            <mxPoint x="510" y="675.4100000000001" as="sourcePoint" />
            <mxPoint x="460" y="562.5" as="targetPoint" />
            <Array as="points">
              <mxPoint x="490" y="615.4100000000001" />
            </Array>
          </mxGeometry>
        </mxCell>
        <mxCell id="tgVbZdLMjY5gzYFNhMRs-20" value="exemplo FK" style="rounded=1;arcSize=10;whiteSpace=wrap;html=1;align=center;fillColor=#f8cecc;strokeColor=#b85450;" parent="1" vertex="1">
          <mxGeometry x="20" y="730" width="100" height="30" as="geometry" />
        </mxCell>
        <mxCell id="tgVbZdLMjY5gzYFNhMRs-21" value="coordenador" style="swimlane;childLayout=stackLayout;horizontal=1;startSize=50;horizontalStack=0;rounded=1;fontSize=14;fontStyle=0;strokeWidth=2;resizeParent=0;resizeLast=1;shadow=0;dashed=0;align=center;arcSize=4;whiteSpace=wrap;html=1;" parent="1" vertex="1">
          <mxGeometry x="60" y="782.5" width="160" height="160" as="geometry" />
        </mxCell>
        <mxCell id="tgVbZdLMjY5gzYFNhMRs-22" value="cpf PK&lt;div&gt;nome&lt;/div&gt;&lt;div&gt;endereco&lt;/div&gt;&lt;div&gt;telefone&lt;/div&gt;&lt;div&gt;&lt;br&gt;&lt;/div&gt;" style="align=left;strokeColor=none;fillColor=none;spacingLeft=4;spacingRight=4;fontSize=12;verticalAlign=top;resizable=0;rotatable=0;part=1;html=1;whiteSpace=wrap;" parent="tgVbZdLMjY5gzYFNhMRs-21" vertex="1">
          <mxGeometry y="50" width="160" height="110" as="geometry" />
        </mxCell>
        <mxCell id="tgVbZdLMjY5gzYFNhMRs-23" value="departamento" style="swimlane;childLayout=stackLayout;horizontal=1;startSize=50;horizontalStack=0;rounded=1;fontSize=14;fontStyle=0;strokeWidth=2;resizeParent=0;resizeLast=1;shadow=0;dashed=0;align=center;arcSize=4;whiteSpace=wrap;html=1;" parent="1" vertex="1">
          <mxGeometry x="320" y="780" width="160" height="170" as="geometry" />
        </mxCell>
        <mxCell id="tgVbZdLMjY5gzYFNhMRs-24" value="&lt;div&gt;codigo PK&lt;/div&gt;&lt;div&gt;caracteristica&lt;/div&gt;&lt;div&gt;&lt;span style=&quot;background-color: transparent; color: light-dark(rgb(0, 0, 0), rgb(255, 255, 255));&quot;&gt;nome&lt;/span&gt;&lt;/div&gt;&lt;div&gt;setor&lt;/div&gt;&lt;div&gt;equipes&lt;/div&gt;&lt;div&gt;cpfcoordenador FK&lt;/div&gt;&lt;div&gt;codcargos FK&lt;/div&gt;&lt;div&gt;&lt;br&gt;&lt;/div&gt;" style="align=left;strokeColor=none;fillColor=none;spacingLeft=4;spacingRight=4;fontSize=12;verticalAlign=top;resizable=0;rotatable=0;part=1;html=1;whiteSpace=wrap;" parent="tgVbZdLMjY5gzYFNhMRs-23" vertex="1">
          <mxGeometry y="50" width="160" height="120" as="geometry" />
        </mxCell>
        <mxCell id="tgVbZdLMjY5gzYFNhMRs-25" value="cargos" style="swimlane;childLayout=stackLayout;horizontal=1;startSize=50;horizontalStack=0;rounded=1;fontSize=14;fontStyle=0;strokeWidth=2;resizeParent=0;resizeLast=1;shadow=0;dashed=0;align=center;arcSize=4;whiteSpace=wrap;html=1;" parent="1" vertex="1">
          <mxGeometry x="580" y="780" width="160" height="170" as="geometry" />
        </mxCell>
        <mxCell id="tgVbZdLMjY5gzYFNhMRs-26" value="codigoPK&lt;div&gt;salario&lt;/div&gt;&lt;div&gt;telefone&lt;/div&gt;&lt;div&gt;nome&lt;/div&gt;&lt;div&gt;filial&lt;/div&gt;&lt;div&gt;&lt;div&gt;codfuncionario FK&lt;/div&gt;&lt;div&gt;&lt;br&gt;&lt;/div&gt;&lt;/div&gt;" style="align=left;strokeColor=none;fillColor=none;spacingLeft=4;spacingRight=4;fontSize=12;verticalAlign=top;resizable=0;rotatable=0;part=1;html=1;whiteSpace=wrap;" parent="tgVbZdLMjY5gzYFNhMRs-25" vertex="1">
          <mxGeometry y="50" width="160" height="120" as="geometry" />
        </mxCell>
        <mxCell id="tgVbZdLMjY5gzYFNhMRs-27" value="" style="edgeStyle=entityRelationEdgeStyle;fontSize=12;html=1;endArrow=ERmany;rounded=0;" parent="1" edge="1">
          <mxGeometry width="100" height="100" relative="1" as="geometry">
            <mxPoint x="220" y="907.5" as="sourcePoint" />
            <mxPoint x="320" y="807.5" as="targetPoint" />
          </mxGeometry>
        </mxCell>
        <mxCell id="tgVbZdLMjY5gzYFNhMRs-28" value="funcionario" style="swimlane;childLayout=stackLayout;horizontal=1;startSize=50;horizontalStack=0;rounded=1;fontSize=14;fontStyle=0;strokeWidth=2;resizeParent=0;resizeLast=1;shadow=0;dashed=0;align=center;arcSize=4;whiteSpace=wrap;html=1;" parent="1" vertex="1">
          <mxGeometry x="580" y="990" width="160" height="170" as="geometry" />
        </mxCell>
        <mxCell id="tgVbZdLMjY5gzYFNhMRs-29" value="&lt;div&gt;nome&lt;/div&gt;&lt;div&gt;cpf PK&amp;nbsp;&lt;/div&gt;&lt;div&gt;telefone&lt;/div&gt;&lt;div&gt;formacao&lt;/div&gt;&lt;div&gt;&lt;br&gt;&lt;/div&gt;&lt;div&gt;&lt;br&gt;&lt;/div&gt;" style="align=left;strokeColor=none;fillColor=none;spacingLeft=4;spacingRight=4;fontSize=12;verticalAlign=top;resizable=0;rotatable=0;part=1;html=1;whiteSpace=wrap;" parent="tgVbZdLMjY5gzYFNhMRs-28" vertex="1">
          <mxGeometry y="50" width="160" height="120" as="geometry" />
        </mxCell>
        <mxCell id="tgVbZdLMjY5gzYFNhMRs-30" value="" style="edgeStyle=entityRelationEdgeStyle;fontSize=12;html=1;endArrow=ERmany;startArrow=ERmany;rounded=0;" parent="1" edge="1">
          <mxGeometry width="100" height="100" relative="1" as="geometry">
            <mxPoint x="480" y="902.5" as="sourcePoint" />
            <mxPoint x="580" y="802.5" as="targetPoint" />
          </mxGeometry>
        </mxCell>
        <mxCell id="tgVbZdLMjY5gzYFNhMRs-31" value="" style="edgeStyle=entityRelationEdgeStyle;fontSize=12;html=1;endArrow=ERmany;rounded=0;exitX=0.992;exitY=0.454;exitDx=0;exitDy=0;exitPerimeter=0;" parent="1" source="tgVbZdLMjY5gzYFNhMRs-26" target="tgVbZdLMjY5gzYFNhMRs-29" edge="1">
          <mxGeometry width="100" height="100" relative="1" as="geometry">
            <mxPoint x="777" y="930" as="sourcePoint" />
            <mxPoint x="770" y="1040" as="targetPoint" />
            <Array as="points">
              <mxPoint x="890.9200000000001" y="1119.96" />
              <mxPoint x="882.2" y="970" />
            </Array>
          </mxGeometry>
        </mxCell>
        <mxCell id="tgVbZdLMjY5gzYFNhMRs-32" value="exemplo FK" style="rounded=1;arcSize=10;whiteSpace=wrap;html=1;align=center;fillColor=#f8cecc;strokeColor=#b85450;" parent="1" vertex="1">
          <mxGeometry x="30" y="310" width="100" height="30" as="geometry" />
        </mxCell>
        <mxCell id="tgVbZdLMjY5gzYFNhMRs-33" value="exercicio 01" style="rounded=1;arcSize=10;whiteSpace=wrap;html=1;align=center;fillColor=#f8cecc;strokeColor=#b85450;" parent="1" vertex="1">
          <mxGeometry x="20" y="1160" width="100" height="30" as="geometry" />
        </mxCell>
        <mxCell id="tgVbZdLMjY5gzYFNhMRs-34" value="proptietario" style="swimlane;childLayout=stackLayout;horizontal=1;startSize=50;horizontalStack=0;rounded=1;fontSize=14;fontStyle=0;strokeWidth=2;resizeParent=0;resizeLast=1;shadow=0;dashed=0;align=center;arcSize=4;whiteSpace=wrap;html=1;" parent="1" vertex="1">
          <mxGeometry x="70" y="1242.5" width="160" height="160" as="geometry" />
        </mxCell>
        <mxCell id="tgVbZdLMjY5gzYFNhMRs-35" value="cpf PK&lt;div&gt;nome&lt;/div&gt;&lt;div&gt;endereco&lt;/div&gt;&lt;div&gt;telefone&lt;/div&gt;&lt;div&gt;&lt;br&gt;&lt;/div&gt;" style="align=left;strokeColor=none;fillColor=none;spacingLeft=4;spacingRight=4;fontSize=12;verticalAlign=top;resizable=0;rotatable=0;part=1;html=1;whiteSpace=wrap;" parent="tgVbZdLMjY5gzYFNhMRs-34" vertex="1">
          <mxGeometry y="50" width="160" height="110" as="geometry" />
        </mxCell>
        <mxCell id="tgVbZdLMjY5gzYFNhMRs-36" value="imovel" style="swimlane;childLayout=stackLayout;horizontal=1;startSize=50;horizontalStack=0;rounded=1;fontSize=14;fontStyle=0;strokeWidth=2;resizeParent=0;resizeLast=1;shadow=0;dashed=0;align=center;arcSize=4;whiteSpace=wrap;html=1;" parent="1" vertex="1">
          <mxGeometry x="330" y="1240" width="160" height="170" as="geometry" />
        </mxCell>
        <mxCell id="tgVbZdLMjY5gzYFNhMRs-37" value="&lt;div&gt;regsitro PK&lt;/div&gt;&lt;div&gt;descricao&lt;/div&gt;&lt;div&gt;endereco&lt;/div&gt;&lt;div&gt;tipo_imovel&lt;/div&gt;&lt;div&gt;valor&lt;/div&gt;&lt;div&gt;cpfproprietario FK&lt;/div&gt;&lt;div&gt;cpfinquilino FK&lt;/div&gt;&lt;div&gt;&lt;br&gt;&lt;/div&gt;" style="align=left;strokeColor=none;fillColor=none;spacingLeft=4;spacingRight=4;fontSize=12;verticalAlign=top;resizable=0;rotatable=0;part=1;html=1;whiteSpace=wrap;" parent="tgVbZdLMjY5gzYFNhMRs-36" vertex="1">
          <mxGeometry y="50" width="160" height="120" as="geometry" />
        </mxCell>
        <mxCell id="tgVbZdLMjY5gzYFNhMRs-38" value="inquilino" style="swimlane;childLayout=stackLayout;horizontal=1;startSize=50;horizontalStack=0;rounded=1;fontSize=14;fontStyle=0;strokeWidth=2;resizeParent=0;resizeLast=1;shadow=0;dashed=0;align=center;arcSize=4;whiteSpace=wrap;html=1;" parent="1" vertex="1">
          <mxGeometry x="590" y="1240" width="160" height="170" as="geometry" />
        </mxCell>
        <mxCell id="tgVbZdLMjY5gzYFNhMRs-39" value="&lt;div&gt;&lt;div&gt;cpf PK&lt;/div&gt;&lt;/div&gt;&lt;div&gt;nomr&lt;/div&gt;&lt;div&gt;endereco&lt;/div&gt;&lt;div&gt;telefone&lt;/div&gt;" style="align=left;strokeColor=none;fillColor=none;spacingLeft=4;spacingRight=4;fontSize=12;verticalAlign=top;resizable=0;rotatable=0;part=1;html=1;whiteSpace=wrap;" parent="tgVbZdLMjY5gzYFNhMRs-38" vertex="1">
          <mxGeometry y="50" width="160" height="120" as="geometry" />
        </mxCell>
        <mxCell id="tgVbZdLMjY5gzYFNhMRs-40" value="" style="edgeStyle=entityRelationEdgeStyle;fontSize=12;html=1;endArrow=ERmany;rounded=0;" parent="1" edge="1">
          <mxGeometry width="100" height="100" relative="1" as="geometry">
            <mxPoint x="230" y="1367.5" as="sourcePoint" />
            <mxPoint x="330" y="1267.5" as="targetPoint" />
          </mxGeometry>
        </mxCell>
        <mxCell id="tgVbZdLMjY5gzYFNhMRs-41" value="corretor" style="swimlane;childLayout=stackLayout;horizontal=1;startSize=50;horizontalStack=0;rounded=1;fontSize=14;fontStyle=0;strokeWidth=2;resizeParent=0;resizeLast=1;shadow=0;dashed=0;align=center;arcSize=4;whiteSpace=wrap;html=1;" parent="1" vertex="1">
          <mxGeometry x="590" y="1450" width="160" height="170" as="geometry" />
        </mxCell>
        <mxCell id="tgVbZdLMjY5gzYFNhMRs-42" value="&lt;div&gt;cpf PK&lt;/div&gt;&lt;div&gt;npme&lt;/div&gt;&lt;div&gt;endereco&lt;/div&gt;&lt;div&gt;telefone&lt;/div&gt;" style="align=left;strokeColor=none;fillColor=none;spacingLeft=4;spacingRight=4;fontSize=12;verticalAlign=top;resizable=0;rotatable=0;part=1;html=1;whiteSpace=wrap;" parent="tgVbZdLMjY5gzYFNhMRs-41" vertex="1">
          <mxGeometry y="50" width="160" height="120" as="geometry" />
        </mxCell>
        <mxCell id="tgVbZdLMjY5gzYFNhMRs-44" value="" style="edgeStyle=entityRelationEdgeStyle;fontSize=12;html=1;endArrow=ERmany;rounded=0;exitX=1;exitY=0.5;exitDx=0;exitDy=0;" parent="1" source="tgVbZdLMjY5gzYFNhMRs-41" target="tgVbZdLMjY5gzYFNhMRs-39" edge="1">
          <mxGeometry width="100" height="100" relative="1" as="geometry">
            <mxPoint x="749.9999999999998" y="1344.48" as="sourcePoint" />
            <mxPoint x="751.28" y="1560" as="targetPoint" />
            <Array as="points">
              <mxPoint x="902.2" y="1579.96" />
              <mxPoint x="893.48" y="1430" />
            </Array>
          </mxGeometry>
        </mxCell>
        <mxCell id="tgVbZdLMjY5gzYFNhMRs-46" value="" style="edgeStyle=entityRelationEdgeStyle;fontSize=12;html=1;endArrow=ERmany;rounded=0;exitX=0;exitY=0.083;exitDx=0;exitDy=0;exitPerimeter=0;entryX=1.011;entryY=0.583;entryDx=0;entryDy=0;entryPerimeter=0;" parent="1" source="tgVbZdLMjY5gzYFNhMRs-39" target="tgVbZdLMjY5gzYFNhMRs-37" edge="1">
          <mxGeometry width="100" height="100" relative="1" as="geometry">
            <mxPoint x="541" y="1300" as="sourcePoint" />
            <mxPoint x="540" y="1390" as="targetPoint" />
            <Array as="points">
              <mxPoint x="692.9200000000001" y="1535.96" />
              <mxPoint x="684.2" y="1386" />
            </Array>
          </mxGeometry>
        </mxCell>
        <mxCell id="tgVbZdLMjY5gzYFNhMRs-47" value="cinema" style="swimlane;childLayout=stackLayout;horizontal=1;startSize=50;horizontalStack=0;rounded=1;fontSize=14;fontStyle=0;strokeWidth=2;resizeParent=0;resizeLast=1;shadow=0;dashed=0;align=center;arcSize=4;whiteSpace=wrap;html=1;" parent="1" vertex="1">
          <mxGeometry x="70" y="1782.5" width="160" height="160" as="geometry" />
        </mxCell>
        <mxCell id="tgVbZdLMjY5gzYFNhMRs-48" value="cnpj PK&lt;div&gt;nome&lt;/div&gt;&lt;div&gt;endereco&lt;/div&gt;&lt;div&gt;telefone&lt;/div&gt;&lt;div&gt;&lt;br&gt;&lt;/div&gt;" style="align=left;strokeColor=none;fillColor=none;spacingLeft=4;spacingRight=4;fontSize=12;verticalAlign=top;resizable=0;rotatable=0;part=1;html=1;whiteSpace=wrap;" parent="tgVbZdLMjY5gzYFNhMRs-47" vertex="1">
          <mxGeometry y="50" width="160" height="110" as="geometry" />
        </mxCell>
        <mxCell id="tgVbZdLMjY5gzYFNhMRs-49" value="sessoes" style="swimlane;childLayout=stackLayout;horizontal=1;startSize=50;horizontalStack=0;rounded=1;fontSize=14;fontStyle=0;strokeWidth=2;resizeParent=0;resizeLast=1;shadow=0;dashed=0;align=center;arcSize=4;whiteSpace=wrap;html=1;" parent="1" vertex="1">
          <mxGeometry x="330" y="1780" width="160" height="170" as="geometry" />
        </mxCell>
        <mxCell id="tgVbZdLMjY5gzYFNhMRs-50" value="&lt;div&gt;cidigoPK&lt;/div&gt;&lt;div&gt;descricao&lt;/div&gt;&lt;div&gt;horario&lt;/div&gt;&lt;div&gt;capacidade&lt;/div&gt;&lt;div&gt;cnpjcinema FK&lt;/div&gt;&lt;div&gt;&lt;div&gt;poltronaingresso FK&lt;/div&gt;&lt;div&gt;&lt;br&gt;&lt;/div&gt;&lt;/div&gt;&lt;div&gt;&lt;br&gt;&lt;/div&gt;" style="align=left;strokeColor=none;fillColor=none;spacingLeft=4;spacingRight=4;fontSize=12;verticalAlign=top;resizable=0;rotatable=0;part=1;html=1;whiteSpace=wrap;" parent="tgVbZdLMjY5gzYFNhMRs-49" vertex="1">
          <mxGeometry y="50" width="160" height="120" as="geometry" />
        </mxCell>
        <mxCell id="tgVbZdLMjY5gzYFNhMRs-51" value="ingresso" style="swimlane;childLayout=stackLayout;horizontal=1;startSize=50;horizontalStack=0;rounded=1;fontSize=14;fontStyle=0;strokeWidth=2;resizeParent=0;resizeLast=1;shadow=0;dashed=0;align=center;arcSize=4;whiteSpace=wrap;html=1;" parent="1" vertex="1">
          <mxGeometry x="590" y="1780" width="160" height="170" as="geometry" />
        </mxCell>
        <mxCell id="tgVbZdLMjY5gzYFNhMRs-52" value="&lt;div&gt;&lt;div&gt;poltrona PK&lt;/div&gt;&lt;/div&gt;&lt;div&gt;numero&lt;/div&gt;&lt;div&gt;valor&lt;/div&gt;&lt;div&gt;tipo&lt;/div&gt;&lt;div&gt;&lt;div&gt;cpfcliente&amp;nbsp; FK&lt;/div&gt;&lt;div&gt;&lt;br&gt;&lt;/div&gt;&lt;/div&gt;" style="align=left;strokeColor=none;fillColor=none;spacingLeft=4;spacingRight=4;fontSize=12;verticalAlign=top;resizable=0;rotatable=0;part=1;html=1;whiteSpace=wrap;" parent="tgVbZdLMjY5gzYFNhMRs-51" vertex="1">
          <mxGeometry y="50" width="160" height="120" as="geometry" />
        </mxCell>
        <mxCell id="tgVbZdLMjY5gzYFNhMRs-53" value="" style="edgeStyle=entityRelationEdgeStyle;fontSize=12;html=1;endArrow=ERmany;rounded=0;" parent="1" edge="1">
          <mxGeometry width="100" height="100" relative="1" as="geometry">
            <mxPoint x="230" y="1907.5" as="sourcePoint" />
            <mxPoint x="330" y="1807.5" as="targetPoint" />
          </mxGeometry>
        </mxCell>
        <mxCell id="tgVbZdLMjY5gzYFNhMRs-54" value="cliente" style="swimlane;childLayout=stackLayout;horizontal=1;startSize=50;horizontalStack=0;rounded=1;fontSize=14;fontStyle=0;strokeWidth=2;resizeParent=0;resizeLast=1;shadow=0;dashed=0;align=center;arcSize=4;whiteSpace=wrap;html=1;" parent="1" vertex="1">
          <mxGeometry x="590" y="1990" width="160" height="170" as="geometry" />
        </mxCell>
        <mxCell id="tgVbZdLMjY5gzYFNhMRs-55" value="&lt;div&gt;cpf PK&lt;/div&gt;&lt;div&gt;nome&lt;/div&gt;&lt;div&gt;endereco&lt;/div&gt;&lt;div&gt;telefone&lt;/div&gt;&lt;div&gt;&lt;br&gt;&lt;/div&gt;" style="align=left;strokeColor=none;fillColor=none;spacingLeft=4;spacingRight=4;fontSize=12;verticalAlign=top;resizable=0;rotatable=0;part=1;html=1;whiteSpace=wrap;" parent="tgVbZdLMjY5gzYFNhMRs-54" vertex="1">
          <mxGeometry y="50" width="160" height="120" as="geometry" />
        </mxCell>
        <mxCell id="tgVbZdLMjY5gzYFNhMRs-58" value="exercicio 02" style="rounded=1;arcSize=10;whiteSpace=wrap;html=1;align=center;fillColor=#f8cecc;strokeColor=#b85450;" parent="1" vertex="1">
          <mxGeometry x="40" y="1724" width="100" height="30" as="geometry" />
        </mxCell>
        <mxCell id="tgVbZdLMjY5gzYFNhMRs-57" value="" style="edgeStyle=entityRelationEdgeStyle;fontSize=12;html=1;endArrow=ERmany;rounded=0;exitX=1;exitY=0.25;exitDx=0;exitDy=0;entryX=-0.001;entryY=0.611;entryDx=0;entryDy=0;entryPerimeter=0;" parent="1" source="tgVbZdLMjY5gzYFNhMRs-50" target="tgVbZdLMjY5gzYFNhMRs-52" edge="1">
          <mxGeometry width="100" height="100" relative="1" as="geometry">
            <mxPoint x="541" y="1840" as="sourcePoint" />
            <mxPoint x="540" y="1930" as="targetPoint" />
            <Array as="points">
              <mxPoint x="692.9200000000001" y="2075.96" />
              <mxPoint x="684.2" y="1926" />
            </Array>
          </mxGeometry>
        </mxCell>
        <mxCell id="tgVbZdLMjY5gzYFNhMRs-56" value="" style="edgeStyle=entityRelationEdgeStyle;fontSize=12;html=1;endArrow=ERmany;rounded=0;exitX=0.99;exitY=0.345;exitDx=0;exitDy=0;exitPerimeter=0;" parent="1" source="tgVbZdLMjY5gzYFNhMRs-52" target="tgVbZdLMjY5gzYFNhMRs-55" edge="1">
          <mxGeometry width="100" height="100" relative="1" as="geometry">
            <mxPoint x="749.9999999999998" y="1884.48" as="sourcePoint" />
            <mxPoint x="751.28" y="2100" as="targetPoint" />
            <Array as="points">
              <mxPoint x="902.2" y="2119.96" />
              <mxPoint x="893.48" y="1970" />
            </Array>
          </mxGeometry>
        </mxCell>
        <mxCell id="tgVbZdLMjY5gzYFNhMRs-59" value="cliente" style="swimlane;childLayout=stackLayout;horizontal=1;startSize=50;horizontalStack=0;rounded=1;fontSize=14;fontStyle=0;strokeWidth=2;resizeParent=0;resizeLast=1;shadow=0;dashed=0;align=center;arcSize=4;whiteSpace=wrap;html=1;" parent="1" vertex="1">
          <mxGeometry x="20" y="2410" width="160" height="160" as="geometry" />
        </mxCell>
        <mxCell id="tgVbZdLMjY5gzYFNhMRs-60" value="cnpj PK&lt;div&gt;nome&lt;/div&gt;&lt;div&gt;endereco&lt;/div&gt;&lt;div&gt;telefone&lt;/div&gt;&lt;div&gt;&lt;br&gt;&lt;/div&gt;" style="align=left;strokeColor=none;fillColor=none;spacingLeft=4;spacingRight=4;fontSize=12;verticalAlign=top;resizable=0;rotatable=0;part=1;html=1;whiteSpace=wrap;" parent="tgVbZdLMjY5gzYFNhMRs-59" vertex="1">
          <mxGeometry y="50" width="160" height="110" as="geometry" />
        </mxCell>
        <mxCell id="tgVbZdLMjY5gzYFNhMRs-61" value="veiculo" style="swimlane;childLayout=stackLayout;horizontal=1;startSize=50;horizontalStack=0;rounded=1;fontSize=14;fontStyle=0;strokeWidth=2;resizeParent=0;resizeLast=1;shadow=0;dashed=0;align=center;arcSize=4;whiteSpace=wrap;html=1;" parent="1" vertex="1">
          <mxGeometry x="240" y="2405" width="160" height="170" as="geometry" />
        </mxCell>
        <mxCell id="tgVbZdLMjY5gzYFNhMRs-94" value="" style="edgeStyle=entityRelationEdgeStyle;fontSize=12;html=1;endArrow=ERoneToMany;rounded=0;exitX=1.011;exitY=0.464;exitDx=0;exitDy=0;exitPerimeter=0;entryX=1.007;entryY=0.644;entryDx=0;entryDy=0;entryPerimeter=0;" parent="tgVbZdLMjY5gzYFNhMRs-61" target="tgVbZdLMjY5gzYFNhMRs-67" edge="1">
          <mxGeometry width="100" height="100" relative="1" as="geometry">
            <mxPoint x="161.12000000000023" y="105.67999999999984" as="sourcePoint" />
            <mxPoint x="158.88" y="305.6399999999999" as="targetPoint" />
          </mxGeometry>
        </mxCell>
        <mxCell id="tgVbZdLMjY5gzYFNhMRs-62" value="&lt;div&gt;&lt;span style=&quot;background-color: transparent; color: light-dark(rgb(0, 0, 0), rgb(255, 255, 255));&quot;&gt;placa PK&lt;/span&gt;&lt;/div&gt;&lt;div&gt;&lt;span style=&quot;background-color: transparent; color: light-dark(rgb(0, 0, 0), rgb(255, 255, 255));&quot;&gt;descricao&lt;/span&gt;&lt;/div&gt;&lt;div&gt;&lt;span style=&quot;background-color: transparent; color: light-dark(rgb(0, 0, 0), rgb(255, 255, 255));&quot;&gt;cor&lt;/span&gt;&lt;/div&gt;&lt;div&gt;&lt;span style=&quot;background-color: transparent; color: light-dark(rgb(0, 0, 0), rgb(255, 255, 255));&quot;&gt;ano&lt;/span&gt;&lt;/div&gt;&lt;div&gt;&lt;br&gt;&lt;/div&gt;" style="align=left;strokeColor=none;fillColor=none;spacingLeft=4;spacingRight=4;fontSize=12;verticalAlign=top;resizable=0;rotatable=0;part=1;html=1;whiteSpace=wrap;" parent="tgVbZdLMjY5gzYFNhMRs-61" vertex="1">
          <mxGeometry y="50" width="160" height="120" as="geometry" />
        </mxCell>
        <mxCell id="tgVbZdLMjY5gzYFNhMRs-63" value="categotia" style="swimlane;childLayout=stackLayout;horizontal=1;startSize=50;horizontalStack=0;rounded=1;fontSize=14;fontStyle=0;strokeWidth=2;resizeParent=0;resizeLast=1;shadow=0;dashed=0;align=center;arcSize=4;whiteSpace=wrap;html=1;" parent="1" vertex="1">
          <mxGeometry x="240" y="2210" width="160" height="170" as="geometry" />
        </mxCell>
        <mxCell id="tgVbZdLMjY5gzYFNhMRs-64" value="&lt;div&gt;&lt;div&gt;codigo PK&lt;/div&gt;&lt;/div&gt;&lt;div&gt;descricao&lt;/div&gt;" style="align=left;strokeColor=none;fillColor=none;spacingLeft=4;spacingRight=4;fontSize=12;verticalAlign=top;resizable=0;rotatable=0;part=1;html=1;whiteSpace=wrap;" parent="tgVbZdLMjY5gzYFNhMRs-63" vertex="1">
          <mxGeometry y="50" width="160" height="120" as="geometry" />
        </mxCell>
        <mxCell id="tgVbZdLMjY5gzYFNhMRs-66" value="revenda" style="swimlane;childLayout=stackLayout;horizontal=1;startSize=50;horizontalStack=0;rounded=1;fontSize=14;fontStyle=0;strokeWidth=2;resizeParent=0;resizeLast=1;shadow=0;dashed=0;align=center;arcSize=4;whiteSpace=wrap;html=1;" parent="1" vertex="1">
          <mxGeometry x="240" y="2610" width="160" height="170" as="geometry" />
        </mxCell>
        <mxCell id="tgVbZdLMjY5gzYFNhMRs-67" value="&lt;div&gt;&lt;span style=&quot;background-color: transparent; color: light-dark(rgb(0, 0, 0), rgb(255, 255, 255));&quot;&gt;cnpj PK&lt;/span&gt;&lt;/div&gt;&lt;div&gt;&lt;span style=&quot;background-color: transparent; color: light-dark(rgb(0, 0, 0), rgb(255, 255, 255));&quot;&gt;nome&lt;/span&gt;&lt;/div&gt;&lt;div&gt;endereco&lt;/div&gt;&lt;div&gt;telefone&lt;/div&gt;&lt;div&gt;&lt;br&gt;&lt;/div&gt;" style="align=left;strokeColor=none;fillColor=none;spacingLeft=4;spacingRight=4;fontSize=12;verticalAlign=top;resizable=0;rotatable=0;part=1;html=1;whiteSpace=wrap;" parent="tgVbZdLMjY5gzYFNhMRs-66" vertex="1">
          <mxGeometry y="50" width="160" height="120" as="geometry" />
        </mxCell>
        <mxCell id="tgVbZdLMjY5gzYFNhMRs-81" value="exercicio 03" style="rounded=1;arcSize=10;whiteSpace=wrap;html=1;align=center;fillColor=#f8cecc;strokeColor=#b85450;" parent="1" vertex="1">
          <mxGeometry x="30" y="2190" width="100" height="30" as="geometry" />
        </mxCell>
        <mxCell id="tgVbZdLMjY5gzYFNhMRs-82" value="marca" style="swimlane;childLayout=stackLayout;horizontal=1;startSize=50;horizontalStack=0;rounded=1;fontSize=14;fontStyle=0;strokeWidth=2;resizeParent=0;resizeLast=1;shadow=0;dashed=0;align=center;arcSize=4;whiteSpace=wrap;html=1;" parent="1" vertex="1">
          <mxGeometry x="450" y="2405" width="160" height="170" as="geometry" />
        </mxCell>
        <mxCell id="tgVbZdLMjY5gzYFNhMRs-83" value="&lt;div&gt;&lt;span style=&quot;background-color: transparent; color: light-dark(rgb(0, 0, 0), rgb(255, 255, 255));&quot;&gt;codigo PK&lt;/span&gt;&lt;/div&gt;&lt;div&gt;descricao&lt;/div&gt;" style="align=left;strokeColor=none;fillColor=none;spacingLeft=4;spacingRight=4;fontSize=12;verticalAlign=top;resizable=0;rotatable=0;part=1;html=1;whiteSpace=wrap;" parent="tgVbZdLMjY5gzYFNhMRs-82" vertex="1">
          <mxGeometry y="50" width="160" height="120" as="geometry" />
        </mxCell>
        <mxCell id="tgVbZdLMjY5gzYFNhMRs-89" value="modelo" style="swimlane;childLayout=stackLayout;horizontal=1;startSize=50;horizontalStack=0;rounded=1;fontSize=14;fontStyle=0;strokeWidth=2;resizeParent=0;resizeLast=1;shadow=0;dashed=0;align=center;arcSize=4;whiteSpace=wrap;html=1;" parent="1" vertex="1">
          <mxGeometry x="650" y="2400" width="160" height="170" as="geometry" />
        </mxCell>
        <mxCell id="tgVbZdLMjY5gzYFNhMRs-90" value="&lt;div&gt;codigo PK&lt;/div&gt;&lt;div&gt;nome&lt;/div&gt;" style="align=left;strokeColor=none;fillColor=none;spacingLeft=4;spacingRight=4;fontSize=12;verticalAlign=top;resizable=0;rotatable=0;part=1;html=1;whiteSpace=wrap;" parent="tgVbZdLMjY5gzYFNhMRs-89" vertex="1">
          <mxGeometry y="50" width="160" height="120" as="geometry" />
        </mxCell>
        <mxCell id="tgVbZdLMjY5gzYFNhMRs-91" value="" style="edgeStyle=entityRelationEdgeStyle;fontSize=12;html=1;endArrow=ERoneToMany;rounded=0;exitX=1.002;exitY=0.629;exitDx=0;exitDy=0;exitPerimeter=0;entryX=0;entryY=0.25;entryDx=0;entryDy=0;" parent="1" source="tgVbZdLMjY5gzYFNhMRs-60" target="tgVbZdLMjY5gzYFNhMRs-61" edge="1">
          <mxGeometry width="100" height="100" relative="1" as="geometry">
            <mxPoint x="350" y="2450" as="sourcePoint" />
            <mxPoint x="450" y="2350" as="targetPoint" />
          </mxGeometry>
        </mxCell>
        <mxCell id="tgVbZdLMjY5gzYFNhMRs-93" value="" style="edgeStyle=entityRelationEdgeStyle;fontSize=12;html=1;endArrow=ERone;endFill=1;rounded=0;entryX=-0.014;entryY=0.186;entryDx=0;entryDy=0;exitX=1;exitY=0.25;exitDx=0;exitDy=0;entryPerimeter=0;" parent="1" target="tgVbZdLMjY5gzYFNhMRs-83" edge="1">
          <mxGeometry width="100" height="100" relative="1" as="geometry">
            <mxPoint x="400" y="2487.5" as="sourcePoint" />
            <mxPoint x="400" y="2330" as="targetPoint" />
            <Array as="points">
              <mxPoint x="420" y="2257.5" />
            </Array>
          </mxGeometry>
        </mxCell>
        <mxCell id="tgVbZdLMjY5gzYFNhMRs-95" value="" style="edgeStyle=entityRelationEdgeStyle;fontSize=12;html=1;endArrow=ERoneToMany;rounded=0;exitX=1;exitY=0.25;exitDx=0;exitDy=0;" parent="1" source="tgVbZdLMjY5gzYFNhMRs-61" target="tgVbZdLMjY5gzYFNhMRs-64" edge="1">
          <mxGeometry width="100" height="100" relative="1" as="geometry">
            <mxPoint x="440.0000000000002" y="2230" as="sourcePoint" />
            <mxPoint x="439.88" y="2456.32" as="targetPoint" />
          </mxGeometry>
        </mxCell>
        <mxCell id="tgVbZdLMjY5gzYFNhMRs-97" value="" style="edgeStyle=entityRelationEdgeStyle;fontSize=12;html=1;endArrow=ERoneToMany;startArrow=ERoneToMany;rounded=0;entryX=0;entryY=0.25;entryDx=0;entryDy=0;" parent="1" source="tgVbZdLMjY5gzYFNhMRs-83" target="tgVbZdLMjY5gzYFNhMRs-89" edge="1">
          <mxGeometry width="100" height="100" relative="1" as="geometry">
            <mxPoint x="350" y="2530" as="sourcePoint" />
            <mxPoint x="450" y="2430" as="targetPoint" />
          </mxGeometry>
        </mxCell>
        <mxCell id="sgIKTzQDU05g3D1gPjQT-1" value="ITEMPEDIDO" style="swimlane;childLayout=stackLayout;horizontal=1;startSize=50;horizontalStack=0;rounded=1;fontSize=14;fontStyle=0;strokeWidth=2;resizeParent=0;resizeLast=1;shadow=0;dashed=0;align=center;arcSize=4;whiteSpace=wrap;html=1;" vertex="1" parent="1">
          <mxGeometry x="566" y="2980" width="160" height="130" as="geometry" />
        </mxCell>
        <mxCell id="sgIKTzQDU05g3D1gPjQT-2" value="numerodoitem PK&lt;div&gt;preco&lt;/div&gt;&lt;div&gt;quantidade&lt;/div&gt;&lt;div&gt;numeropedido FK&lt;/div&gt;&lt;div&gt;codigoproduto FK&lt;/div&gt;" style="align=left;strokeColor=none;fillColor=none;spacingLeft=4;spacingRight=4;fontSize=12;verticalAlign=top;resizable=0;rotatable=0;part=1;html=1;whiteSpace=wrap;" vertex="1" parent="sgIKTzQDU05g3D1gPjQT-1">
          <mxGeometry y="50" width="160" height="80" as="geometry" />
        </mxCell>
        <mxCell id="sgIKTzQDU05g3D1gPjQT-3" value="PEDIDO" style="swimlane;childLayout=stackLayout;horizontal=1;startSize=50;horizontalStack=0;rounded=1;fontSize=14;fontStyle=0;strokeWidth=2;resizeParent=0;resizeLast=1;shadow=0;dashed=0;align=center;arcSize=4;whiteSpace=wrap;html=1;" vertex="1" parent="1">
          <mxGeometry x="316" y="2970" width="160" height="130" as="geometry" />
        </mxCell>
        <mxCell id="sgIKTzQDU05g3D1gPjQT-4" value="numero PK&lt;div&gt;data&lt;/div&gt;&lt;div&gt;imposto&lt;/div&gt;&lt;div&gt;total&lt;/div&gt;&lt;div&gt;cpfcliente FK&lt;/div&gt;" style="align=left;strokeColor=none;fillColor=none;spacingLeft=4;spacingRight=4;fontSize=12;verticalAlign=top;resizable=0;rotatable=0;part=1;html=1;whiteSpace=wrap;" vertex="1" parent="sgIKTzQDU05g3D1gPjQT-3">
          <mxGeometry y="50" width="160" height="80" as="geometry" />
        </mxCell>
        <mxCell id="sgIKTzQDU05g3D1gPjQT-5" value="PRODUTO" style="swimlane;childLayout=stackLayout;horizontal=1;startSize=50;horizontalStack=0;rounded=1;fontSize=14;fontStyle=0;strokeWidth=2;resizeParent=0;resizeLast=1;shadow=0;dashed=0;align=center;arcSize=4;whiteSpace=wrap;html=1;" vertex="1" parent="1">
          <mxGeometry x="316" y="3140" width="160" height="150" as="geometry" />
        </mxCell>
        <mxCell id="sgIKTzQDU05g3D1gPjQT-6" value="codigo PK&lt;div&gt;nome&lt;/div&gt;&lt;div&gt;marca&lt;/div&gt;&lt;div&gt;estoque&lt;/div&gt;&lt;div&gt;precounitario&lt;/div&gt;&lt;div&gt;codigocategoria FK&lt;/div&gt;&lt;div&gt;&lt;br&gt;&lt;/div&gt;" style="align=left;strokeColor=none;fillColor=none;spacingLeft=4;spacingRight=4;fontSize=12;verticalAlign=top;resizable=0;rotatable=0;part=1;html=1;whiteSpace=wrap;" vertex="1" parent="sgIKTzQDU05g3D1gPjQT-5">
          <mxGeometry y="50" width="160" height="100" as="geometry" />
        </mxCell>
        <mxCell id="sgIKTzQDU05g3D1gPjQT-7" value="CLIENTE" style="swimlane;childLayout=stackLayout;horizontal=1;startSize=50;horizontalStack=0;rounded=1;fontSize=14;fontStyle=0;strokeWidth=2;resizeParent=0;resizeLast=1;shadow=0;dashed=0;align=center;arcSize=4;whiteSpace=wrap;html=1;" vertex="1" parent="1">
          <mxGeometry x="56" y="2980" width="160" height="120" as="geometry" />
        </mxCell>
        <mxCell id="sgIKTzQDU05g3D1gPjQT-8" value="cpf PK&lt;br&gt;&lt;div&gt;nome&lt;/div&gt;&lt;div&gt;endereco&lt;/div&gt;&lt;div&gt;telefone&lt;/div&gt;" style="align=left;strokeColor=none;fillColor=none;spacingLeft=4;spacingRight=4;fontSize=12;verticalAlign=top;resizable=0;rotatable=0;part=1;html=1;whiteSpace=wrap;" vertex="1" parent="sgIKTzQDU05g3D1gPjQT-7">
          <mxGeometry y="50" width="160" height="70" as="geometry" />
        </mxCell>
        <mxCell id="sgIKTzQDU05g3D1gPjQT-9" value="CATEGORIA&lt;span style=&quot;color: rgba(0, 0, 0, 0); font-family: monospace; font-size: 0px; text-align: start; text-wrap-mode: nowrap;&quot;&gt;%3CmxGraphModel%3E%3Croot%3E%3CmxCell%20id%3D%220%22%2F%3E%3CmxCell%20id%3D%221%22%20parent%3D%220%22%2F%3E%3CmxCell%20id%3D%222%22%20value%3D%22CLIENTE%22%20style%3D%22swimlane%3BchildLayout%3DstackLayout%3Bhorizontal%3D1%3BstartSize%3D50%3BhorizontalStack%3D0%3Brounded%3D1%3BfontSize%3D14%3BfontStyle%3D0%3BstrokeWidth%3D2%3BresizeParent%3D0%3BresizeLast%3D1%3Bshadow%3D0%3Bdashed%3D0%3Balign%3Dcenter%3BarcSize%3D4%3BwhiteSpace%3Dwrap%3Bhtml%3D1%3B%22%20vertex%3D%221%22%20parent%3D%221%22%3E%3CmxGeometry%20x%3D%22620%22%20y%3D%222390%22%20width%3D%22160%22%20height%3D%22120%22%20as%3D%22geometry%22%2F%3E%3C%2FmxCell%3E%3CmxCell%20id%3D%223%22%20value%3D%22%2BAttribute1%26%2310%3B%2BAttribute2%26%2310%3B%2BAttribute3%22%20style%3D%22align%3Dleft%3BstrokeColor%3Dnone%3BfillColor%3Dnone%3BspacingLeft%3D4%3BspacingRight%3D4%3BfontSize%3D12%3BverticalAlign%3Dtop%3Bresizable%3D0%3Brotatable%3D0%3Bpart%3D1%3Bhtml%3D1%3BwhiteSpace%3Dwrap%3B%22%20vertex%3D%221%22%20parent%3D%222%22%3E%3CmxGeometry%20y%3D%2250%22%20width%3D%22160%22%20height%3D%2270%22%20as%3D%22geometry%22%2F%3E%3C%2FmxCell%3E%3C%2Froot%3E%3C%2FmxGraphModel%3E&lt;/span&gt;" style="swimlane;childLayout=stackLayout;horizontal=1;startSize=50;horizontalStack=0;rounded=1;fontSize=14;fontStyle=0;strokeWidth=2;resizeParent=0;resizeLast=1;shadow=0;dashed=0;align=center;arcSize=4;whiteSpace=wrap;html=1;" vertex="1" parent="1">
          <mxGeometry x="56" y="3170" width="160" height="90" as="geometry" />
        </mxCell>
        <mxCell id="sgIKTzQDU05g3D1gPjQT-10" value="codigo PK&lt;div&gt;descricao&lt;/div&gt;" style="align=left;strokeColor=none;fillColor=none;spacingLeft=4;spacingRight=4;fontSize=12;verticalAlign=top;resizable=0;rotatable=0;part=1;html=1;whiteSpace=wrap;" vertex="1" parent="sgIKTzQDU05g3D1gPjQT-9">
          <mxGeometry y="50" width="160" height="40" as="geometry" />
        </mxCell>
        <mxCell id="sgIKTzQDU05g3D1gPjQT-11" value="" style="edgeStyle=entityRelationEdgeStyle;fontSize=12;html=1;endArrow=ERmany;rounded=0;" edge="1" parent="1">
          <mxGeometry width="100" height="100" relative="1" as="geometry">
            <mxPoint x="216" y="3090" as="sourcePoint" />
            <mxPoint x="316" y="2990" as="targetPoint" />
          </mxGeometry>
        </mxCell>
        <mxCell id="sgIKTzQDU05g3D1gPjQT-12" value="" style="edgeStyle=entityRelationEdgeStyle;fontSize=12;html=1;endArrow=ERmany;rounded=0;entryX=0;entryY=0.25;entryDx=0;entryDy=0;exitX=1;exitY=0.75;exitDx=0;exitDy=0;" edge="1" parent="1" source="sgIKTzQDU05g3D1gPjQT-4" target="sgIKTzQDU05g3D1gPjQT-1">
          <mxGeometry width="100" height="100" relative="1" as="geometry">
            <mxPoint x="476" y="3090" as="sourcePoint" />
            <mxPoint x="576" y="2990" as="targetPoint" />
          </mxGeometry>
        </mxCell>
        <mxCell id="sgIKTzQDU05g3D1gPjQT-13" value="" style="edgeStyle=entityRelationEdgeStyle;fontSize=12;html=1;endArrow=ERmany;rounded=0;entryX=0;entryY=0.75;entryDx=0;entryDy=0;exitX=1;exitY=0;exitDx=0;exitDy=0;" edge="1" parent="1" source="sgIKTzQDU05g3D1gPjQT-6" target="sgIKTzQDU05g3D1gPjQT-2">
          <mxGeometry width="100" height="100" relative="1" as="geometry">
            <mxPoint x="496" y="3193" as="sourcePoint" />
            <mxPoint x="586" y="3130" as="targetPoint" />
            <Array as="points">
              <mxPoint x="546" y="3290" />
            </Array>
          </mxGeometry>
        </mxCell>
        <mxCell id="sgIKTzQDU05g3D1gPjQT-14" value="" style="edgeStyle=entityRelationEdgeStyle;fontSize=12;html=1;endArrow=ERmany;rounded=0;exitX=1;exitY=0.75;exitDx=0;exitDy=0;" edge="1" parent="1" source="sgIKTzQDU05g3D1gPjQT-10">
          <mxGeometry width="100" height="100" relative="1" as="geometry">
            <mxPoint x="216" y="3290" as="sourcePoint" />
            <mxPoint x="316" y="3190" as="targetPoint" />
          </mxGeometry>
        </mxCell>
        <mxCell id="sgIKTzQDU05g3D1gPjQT-15" value="exercicio 04" style="rounded=1;arcSize=10;whiteSpace=wrap;html=1;align=center;fillColor=#f8cecc;strokeColor=#b85450;" vertex="1" parent="1">
          <mxGeometry x="40" y="2900" width="100" height="30" as="geometry" />
        </mxCell>
      </root>
    </mxGraphModel>
  </diagram>
</mxfile>
